<svg viewBox="0 0 512 512" fill="none" xmlns="http://www.w3.org/2000/svg">
<path d="M235.925 0.560713C196.894 8.35122 168.715 32.3544 154.626 69.8331C152.341 75.518 148.724 90.2568 146.439 102.469C136.919 151.949 121.497 197.85 101.506 236.381C82.8467 272.386 72.5653 287.125 33.3436 335.131C10.6865 362.925 7.44971 368.61 2.8802 389.033C-0.927724 406.088 -0.927724 417.458 2.68981 434.724C6.68813 453.042 13.1616 466.307 25.7278 481.256C45.529 504.838 73.898 515.576 104.742 510.944C144.535 504.838 174.618 483.783 197.846 445.672C217.076 413.879 230.213 404.825 256.869 404.614C282.953 404.614 298.947 414.721 315.892 442.514C325.221 457.885 338.739 472.623 353.59 483.993C373.391 499.153 411.852 508.628 436.222 504.417C443.267 503.364 454.691 498.943 464.02 493.889C476.586 487.152 481.537 482.94 489.152 472.834C505.907 450.726 512 432.618 512 405.457C512 388.191 508.192 370.926 501.909 359.345C499.624 355.345 484.583 336.395 468.209 317.024C435.27 278.492 427.083 267.754 411.09 241.435C384.434 197.639 371.488 163.53 356.637 98.679C348.83 64.3586 343.499 52.9887 326.364 33.8283C312.465 18.2473 301.231 10.4568 283.524 4.7718C273.053 1.19238 244.684 -1.12372 235.925 0.560713ZM269.816 78.4658C282.572 85.4141 287.904 95.3101 293.044 121.419C300.279 157.213 313.988 198.692 330.362 234.486C353.209 284.388 372.249 313.023 417.373 365.241C444.6 396.824 445.361 397.877 445.361 406.72C445.361 425.249 430.701 435.355 410.9 430.723C391.479 426.091 382.531 418.932 366.918 395.139C346.926 364.609 328.839 349.239 300.089 337.658C287.332 332.605 280.288 331.341 262.581 330.499C236.306 329.025 219.361 333.236 195.371 347.133C176.141 358.292 161.29 373.452 146.629 397.034C129.684 424.617 120.545 432.407 99.0303 437.461C86.0834 440.409 74.4692 434.934 69.5189 423.564C64.1878 411.352 66.4726 404.825 83.7986 383.559C128.542 328.815 149.485 296.179 171.952 246.699C188.136 211.326 202.416 165.846 210.031 126.051C215.743 96.3629 218.218 90.0463 226.786 82.8874C240.495 71.728 254.965 70.2542 269.816 78.4658Z" fill="#3083FF"/>
</svg>
